<?xml version="1.0" standalone="no"?>
<!DOCTYPE svg PUBLIC "-//W3C//DTD SVG 20010904//EN"
 "http://www.w3.org/TR/2001/REC-SVG-20010904/DTD/svg10.dtd">
<svg version="1.0" xmlns="http://www.w3.org/2000/svg"
 width="1000.000000pt" height="1000.000000pt" viewBox="0 0 1000.000000 1000.000000"
 preserveAspectRatio="xMidYMid meet">
<metadata>
Created by potrace 1.11, written by Peter Selinger 2001-2013
</metadata>
<g transform="translate(0.000000,1000.000000) scale(0.100000,-0.100000)"
fill="#000000" stroke="none">
<path d="M1191 9979 c-288 -75 -526 -213 -742 -428 -215 -215 -352 -452 -424
-728 l-25 -95 0 -3728 0 -3728 25 -95 c72 -277 210 -513 424 -728 220 -219
458 -356 748 -428 l81 -21 3725 0 c3700 0 3724 0 3803 20 288 74 527 212 745
429 216 217 356 459 429 747 20 76 20 127 20 3803 0 3197 -2 3735 -15 3787
-67 285 -215 546 -434 765 -216 215 -448 350 -730 424 l-93 25 -3732 -1
c-3666 0 -3732 0 -3805 -20z m7338 -299 c236 -25 479 -121 656 -260 60 -47
191 -178 236 -236 141 -184 232 -413 258 -656 15 -131 15 -6925 1 -7053 -70
-625 -544 -1097 -1163 -1155 -77 -8 -1193 -10 -3597 -8 l-3485 4 -90 21 c-282
67 -465 169 -660 367 -218 222 -334 465 -365 767 -14 141 -14 6917 0 7058 21
197 86 389 191 557 61 97 220 270 312 339 181 137 417 231 636 254 118 13
6949 13 7070 1z"/>
<path d="M2074 9436 c-17 -8 -44 -31 -60 -52 -76 -99 -1 -244 125 -244 88 0
151 64 151 154 0 113 -113 187 -216 142z"/>
<path d="M2560 9439 c-87 -36 -125 -138 -81 -219 57 -109 222 -107 275 3 34
72 12 150 -55 200 -31 23 -103 31 -139 16z"/>
<path d="M4455 9430 c-56 -29 -78 -64 -83 -130 -2 -42 2 -62 17 -88 29 -45 77
-72 131 -72 62 0 110 28 138 81 71 133 -70 279 -203 209z"/>
<path d="M5415 9436 c-87 -39 -119 -138 -70 -221 58 -100 204 -101 266 -3 15
26 19 46 17 88 -5 67 -27 102 -84 130 -46 23 -86 25 -129 6z"/>
<path d="M5900 9439 c-119 -50 -135 -213 -28 -279 21 -13 51 -20 82 -20 155 0
211 188 84 283 -30 23 -103 31 -138 16z"/>
<path d="M6358 9430 c-137 -74 -86 -290 69 -290 116 0 191 109 145 213 -37 84
-136 120 -214 77z"/>
<path d="M6845 9436 c-17 -7 -43 -28 -58 -45 -84 -100 -9 -251 125 -251 158 0
208 226 64 291 -48 22 -89 23 -131 5z"/>
<path d="M7330 9439 c-87 -36 -125 -138 -81 -219 57 -109 222 -107 275 3 34
72 12 150 -55 200 -31 23 -103 31 -139 16z"/>
<path d="M7793 9429 c-107 -53 -113 -205 -11 -270 26 -16 45 -19 91 -16 49 3
62 8 92 37 63 61 70 140 19 207 -48 63 -118 78 -191 42z"/>
<path d="M1112 8953 c-74 -36 -104 -137 -62 -211 75 -133 270 -91 287 61 14
118 -116 204 -225 150z"/>
<path d="M2542 8953 c-74 -36 -104 -137 -62 -211 43 -77 143 -105 211 -59 57
38 81 84 77 143 -3 31 -13 63 -26 81 -42 59 -132 80 -200 46z"/>
<path d="M5397 8948 c-49 -29 -82 -94 -74 -150 10 -75 68 -128 144 -135 92 -7
163 62 163 158 0 116 -130 186 -233 127z"/>
<path d="M5882 8953 c-74 -36 -104 -137 -62 -211 75 -133 270 -92 287 61 13
117 -117 204 -225 150z"/>
<path d="M8739 8948 c-130 -74 -86 -268 64 -285 126 -15 214 139 139 244 -44
62 -136 81 -203 41z"/>
<path d="M1613 8484 c-46 -16 -103 -77 -104 -113 -4 -91 20 -139 85 -170 54
-27 81 -26 136 2 33 16 51 34 68 67 27 55 28 82 2 136 -35 71 -112 103 -187
78z"/>
<path d="M2581 8489 c-101 -21 -155 -146 -98 -229 37 -55 71 -74 132 -74 61 0
95 19 133 74 40 60 22 158 -39 202 -34 25 -86 36 -128 27z"/>
<path d="M3063 8489 c-44 -9 -80 -34 -104 -72 -16 -25 -19 -45 -16 -90 3 -49
8 -62 37 -92 58 -60 126 -69 198 -25 35 21 71 87 72 129 0 37 -37 107 -67 127
-36 23 -81 32 -120 23z"/>
<path d="M5907 8485 c-128 -44 -146 -196 -34 -279 44 -32 124 -28 172 8 139
107 26 328 -138 271z"/>
<path d="M6386 8485 c-113 -39 -147 -172 -66 -254 79 -78 206 -57 250 42 25
54 25 81 -1 133 -34 71 -111 104 -183 79z"/>
<path d="M7833 8489 c-76 -16 -123 -74 -123 -153 0 -62 29 -109 86 -136 52
-26 80 -25 134 3 33 16 51 34 68 67 27 55 28 82 2 136 -32 66 -98 98 -167 83z"/>
<path d="M8764 8484 c-47 -16 -91 -65 -100 -111 -27 -144 137 -248 246 -156
135 113 21 324 -146 267z"/>
<path d="M1130 8009 c-119 -50 -135 -213 -28 -279 44 -26 122 -27 165 0 18 10
42 38 54 61 50 99 -14 216 -122 225 -24 2 -55 -1 -69 -7z"/>
<path d="M2092 8013 c-13 -3 -41 -22 -62 -43 -51 -51 -62 -110 -31 -172 28
-59 74 -88 137 -88 91 0 154 62 154 154 0 104 -87 170 -198 149z"/>
<path d="M5445 7845 c-111 -64 -289 -144 -360 -163 -164 -43 -205 -52 -230
-52 -33 0 -179 -36 -230 -57 -41 -17 -111 -69 -155 -114 -63 -66 -94 -111
-150 -224 -25 -49 -47 -92 -50 -95 -3 -3 -20 -34 -38 -70 -18 -36 -42 -78 -52
-95 -11 -16 -23 -37 -26 -45 -4 -8 -21 -35 -39 -60 -17 -25 -34 -52 -38 -60
-4 -8 -27 -42 -52 -75 -53 -72 -149 -213 -189 -281 -88 -145 -94 -172 -34
-152 18 6 38 14 43 18 35 27 165 51 293 56 79 3 152 11 172 19 19 8 61 17 92
20 44 5 68 14 105 43 26 20 50 38 53 42 20 23 116 73 194 102 55 19 81 22 246
22 149 0 197 -4 248 -19 60 -17 65 -17 118 0 63 20 183 17 209 -5 10 -8 56
-13 137 -14 142 -1 182 -15 267 -92 54 -48 65 -51 107 -29 17 9 56 15 94 15
69 0 111 -16 180 -70 20 -16 54 -30 81 -34 26 -4 55 -13 65 -21 11 -8 28 -15
40 -15 20 0 21 4 16 74 -6 98 13 149 74 195 29 22 44 41 44 56 0 28 91 148
124 163 50 23 43 47 -34 119 -74 69 -181 199 -242 293 -36 57 -47 76 -87 157
-146 297 -140 287 -184 311 -23 12 -59 22 -80 22 -21 0 -50 6 -65 14 -15 7
-46 17 -69 21 -24 4 -45 11 -48 15 -3 5 -27 12 -53 15 -26 4 -67 13 -91 21
-25 8 -61 14 -80 14 -20 0 -56 9 -80 20 -64 29 -191 26 -246 -5z"/>
<path d="M630 7518 c-55 -38 -75 -73 -75 -133 0 -153 196 -212 283 -85 31 47
31 123 -2 171 -47 68 -143 90 -206 47z"/>
<path d="M1112 7523 c-47 -23 -75 -67 -79 -127 -5 -65 19 -113 73 -143 76 -44
159 -22 211 56 83 123 -69 281 -205 214z"/>
<path d="M1591 7522 c-88 -44 -111 -158 -49 -237 44 -57 140 -72 198 -32 55
37 74 71 74 132 0 61 -19 95 -74 133 -40 27 -101 29 -149 4z"/>
<path d="M2539 7518 c-45 -25 -79 -83 -79 -133 0 -51 34 -108 80 -134 74 -41
167 -15 209 59 76 135 -77 286 -210 208z"/>
<path d="M7790 7522 c-52 -26 -80 -74 -80 -137 0 -158 188 -212 284 -82 15 21
21 43 21 82 0 60 -20 95 -75 133 -40 27 -101 29 -150 4z"/>
<path d="M1581 7038 c-104 -70 -97 -214 13 -267 23 -12 53 -21 67 -21 42 1
108 37 129 72 44 72 35 140 -25 198 -30 29 -43 34 -92 38 -48 3 -64 0 -92 -20z"/>
<path d="M8274 7050 c-33 -13 -83 -77 -90 -116 -9 -50 21 -122 65 -151 49 -33
94 -38 147 -18 155 59 110 297 -55 294 -25 0 -55 -4 -67 -9z"/>
<path d="M9212 7040 c-53 -32 -74 -75 -69 -143 3 -49 8 -62 37 -92 61 -63 140
-70 207 -19 38 29 63 77 63 121 0 42 -38 110 -74 133 -44 27 -120 27 -164 0z"/>
<path d="M9240 6579 c-122 -49 -135 -216 -21 -283 104 -61 242 29 228 150 -11
99 -119 168 -207 133z"/>
<path d="M645 6096 c-93 -40 -122 -160 -58 -237 96 -114 273 -53 273 94 0 114
-112 188 -215 143z"/>
<path d="M1610 6103 c-121 -46 -138 -208 -30 -280 67 -46 159 -24 214 50 32
44 28 124 -8 172 -41 54 -119 79 -176 58z"/>
<path d="M8274 6096 c-17 -8 -44 -31 -60 -51 -36 -48 -40 -128 -8 -172 35 -48
82 -73 134 -73 147 0 209 195 89 281 -39 27 -112 35 -155 15z"/>
<path d="M9218 6090 c-106 -58 -105 -219 2 -272 72 -37 152 -15 204 55 29 39
29 125 0 163 -52 70 -136 92 -206 54z"/>
<path d="M645 5621 c-34 -14 -74 -62 -86 -101 -29 -97 47 -200 149 -200 16 0
48 10 72 23 139 73 87 288 -70 286 -25 0 -54 -4 -65 -8z"/>
<path d="M8260 5608 c-56 -38 -75 -73 -74 -133 1 -121 123 -192 228 -132 137
77 82 287 -74 287 -32 0 -57 -7 -80 -22z"/>
<path d="M8729 5606 c-125 -85 -65 -281 86 -281 153 0 212 196 85 283 -46 31
-123 30 -171 -2z"/>
<path d="M5720 5390 c-25 -4 -58 -13 -75 -20 -19 -7 -55 -9 -102 -4 -93 8 -94
-1 -12 -81 84 -83 89 -87 137 -119 23 -16 42 -32 42 -37 0 -15 -36 -28 -111
-40 -130 -22 -185 -60 -159 -109 8 -15 16 -15 82 -4 40 7 85 17 99 23 52 19
227 35 255 23 14 -7 33 -12 44 -12 10 0 25 -7 33 -15 8 -7 26 -17 40 -20 15
-4 31 -13 38 -21 6 -8 22 -14 36 -14 13 0 26 -7 29 -15 4 -8 12 -15 19 -15 20
0 138 -94 180 -145 43 -52 58 -75 75 -115 5 -14 14 -32 19 -41 5 -9 13 -34 17
-55 4 -22 13 -51 20 -66 18 -36 18 -177 0 -270 -17 -85 -33 -176 -46 -268 -32
-220 -73 -423 -96 -478 -8 -18 -14 -40 -14 -50 -1 -41 -96 -196 -152 -247 -61
-56 -268 -205 -285 -205 -7 0 -82 -49 -93 -60 -3 -3 -45 -25 -95 -48 -49 -24
-98 -48 -107 -53 -10 -5 -46 -19 -80 -31 -57 -20 -82 -23 -258 -23 -173 1
-203 3 -262 22 -36 12 -75 26 -85 32 -10 6 -47 24 -83 40 -36 16 -82 41 -103
55 -21 14 -40 26 -43 26 -2 0 -27 16 -54 35 -27 19 -52 35 -55 35 -14 0 -222
157 -265 200 -20 20 -82 115 -104 160 -20 40 -41 109 -60 195 -8 33 -18 80
-24 105 -11 47 -27 150 -42 280 -5 41 -16 109 -24 150 -46 230 -46 363 -4 565
6 28 17 124 24 215 8 91 18 190 23 220 14 83 13 164 -3 185 -13 18 -15 18 -41
1 -14 -10 -31 -31 -37 -47 -8 -22 -36 -47 -102 -91 -50 -34 -110 -69 -133 -80
-42 -18 -43 -18 -87 2 -25 11 -48 20 -51 20 -4 0 -20 14 -37 30 -16 17 -33 30
-38 30 -10 0 -130 -243 -130 -263 0 -7 -8 -24 -17 -37 -25 -35 -26 -271 -1
-321 9 -19 22 -48 28 -66 6 -17 32 -62 56 -100 39 -61 44 -74 44 -128 0 -33
-7 -89 -16 -125 -32 -133 -20 -235 43 -355 54 -102 171 -183 224 -154 19 10
19 12 5 28 -9 10 -16 24 -16 32 0 9 -6 24 -14 34 -8 11 -11 25 -9 33 14 35
123 -146 123 -205 0 -19 -14 -40 -48 -73 -58 -55 -55 -75 14 -108 54 -27 139
-29 188 -6 44 22 81 12 95 -23 20 -51 85 -139 138 -188 18 -17 33 -36 33 -42
0 -18 -41 -43 -72 -43 -15 0 -29 -4 -33 -9 -3 -5 -22 -15 -43 -22 -84 -27
-125 -89 -124 -187 1 -59 -1 -63 -28 -77 -16 -8 -51 -15 -77 -15 -26 -1 -66
-9 -88 -20 -22 -11 -45 -19 -52 -20 -23 0 -134 -83 -165 -123 -48 -60 -78
-107 -78 -121 0 -6 -7 -21 -15 -32 -26 -34 -18 -52 34 -78 l48 -25 6 40 c3 22
12 48 21 58 9 10 16 24 16 33 0 21 119 138 140 138 10 0 23 6 29 14 7 8 40 17
74 21 34 4 74 14 89 21 42 22 59 17 104 -28 49 -51 70 -68 83 -68 6 0 25 -9
43 -20 18 -11 43 -20 54 -20 12 0 24 -7 28 -15 3 -9 18 -15 35 -15 16 0 31 -6
34 -14 3 -7 22 -17 43 -20 20 -4 43 -14 51 -22 8 -8 27 -14 42 -14 16 0 34 -6
40 -14 7 -8 28 -17 48 -21 20 -4 46 -13 57 -21 11 -8 30 -14 41 -14 11 0 29
-7 39 -15 11 -8 27 -15 35 -15 9 -1 34 -9 56 -20 22 -11 48 -19 57 -20 28 0
82 -30 100 -55 13 -18 19 -53 24 -139 6 -104 9 -116 26 -116 15 0 18 8 18 48
0 76 17 86 26 14 6 -53 9 -62 27 -62 19 0 20 5 14 81 -3 45 -10 86 -16 92 -6
6 -11 21 -11 33 0 21 3 22 32 13 38 -10 68 -3 68 16 0 13 -24 30 -77 54 -22
10 -30 29 -35 85 -2 17 -13 37 -29 48 -22 17 -31 18 -66 9 -23 -6 -44 -18 -47
-27 -5 -12 -14 -14 -38 -9 -18 4 -40 13 -48 20 -8 7 -33 16 -54 20 -22 3 -49
13 -60 21 -11 8 -30 14 -41 14 -11 0 -30 6 -41 14 -11 8 -37 17 -57 21 -20 4
-41 13 -48 21 -6 8 -22 14 -34 14 -12 0 -28 6 -34 14 -7 8 -27 17 -45 20 -19
4 -39 13 -46 21 -7 8 -20 15 -30 15 -10 0 -23 6 -29 14 -7 8 -26 18 -44 22
-17 3 -37 13 -45 20 -7 8 -19 14 -26 14 -7 0 -23 11 -36 25 -22 23 -23 28 -11
60 10 28 9 39 -4 64 -17 34 -20 111 -4 111 6 0 22 9 36 20 14 11 36 20 49 20
21 0 24 -5 24 -41 0 -31 6 -47 29 -70 16 -16 35 -29 41 -29 7 0 23 -9 37 -20
14 -11 36 -20 49 -20 13 0 24 -4 24 -10 0 -5 12 -13 28 -16 15 -4 38 -15 51
-26 13 -10 29 -18 36 -18 7 0 18 -7 25 -15 7 -8 21 -15 31 -15 9 0 24 -7 32
-15 8 -7 26 -17 41 -21 14 -3 28 -10 31 -14 3 -5 33 -23 68 -40 34 -17 76 -40
92 -50 17 -11 41 -25 55 -30 13 -6 27 -14 30 -18 3 -4 25 -21 49 -37 59 -40
92 -68 161 -137 31 -32 64 -58 73 -58 9 0 53 38 99 85 46 47 92 88 103 92 17
5 72 39 85 53 3 3 16 11 30 18 14 6 52 28 85 47 33 20 77 43 98 52 20 9 37 20
37 25 0 4 6 8 14 8 17 0 120 52 124 62 2 5 10 8 18 8 8 0 32 8 52 19 38 19 88
42 132 61 68 29 110 69 110 105 0 29 -38 70 -75 81 l-30 8 38 4 c24 2 43 -2
53 -12 8 -9 25 -16 36 -16 11 0 31 -9 45 -20 14 -11 32 -20 39 -20 21 0 18
-90 -3 -120 -10 -14 -20 -51 -23 -85 -5 -56 -7 -61 -48 -92 -24 -18 -54 -33
-66 -33 -13 0 -33 -9 -46 -20 -13 -11 -33 -20 -45 -20 -11 0 -30 -7 -41 -15
-10 -8 -29 -15 -42 -15 -12 0 -39 -9 -59 -20 -21 -11 -49 -20 -63 -20 -15 0
-35 -7 -46 -15 -10 -8 -32 -15 -47 -15 -16 0 -43 -6 -60 -14 -88 -39 -115 -39
-147 -2 -7 9 -27 16 -44 16 -40 0 -68 -32 -76 -84 -3 -23 -12 -42 -22 -47 -10
-5 -26 -14 -35 -19 -10 -6 -29 -15 -43 -20 -14 -6 -30 -16 -35 -23 -6 -7 -19
-17 -30 -23 -55 -31 0 -54 58 -24 21 11 47 20 59 20 20 0 21 -3 16 -111 l-6
-111 45 5 c25 2 49 9 55 15 6 6 13 62 17 125 3 64 9 118 12 122 10 10 111 47
144 53 17 2 39 11 50 18 11 8 30 14 43 14 13 0 36 7 51 15 16 8 47 17 70 21
22 4 46 13 52 20 6 8 25 14 41 14 17 0 42 6 56 14 15 8 46 19 70 25 23 7 42
16 42 21 0 6 11 10 24 10 27 0 97 34 135 65 26 22 29 25 67 72 19 25 30 31 42
24 9 -5 44 -12 77 -16 33 -4 68 -13 79 -21 11 -8 27 -14 35 -14 8 0 40 -22 71
-49 l57 -50 37 25 c20 14 36 29 36 34 0 25 -168 150 -202 150 -7 0 -26 7 -43
16 -16 9 -57 19 -89 23 l-59 6 2 81 c2 63 -1 83 -13 94 -9 7 -16 19 -16 26 0
32 -108 92 -194 108 -52 10 -53 39 -5 83 21 19 55 57 74 83 35 48 74 70 122
70 38 0 123 40 184 87 82 61 155 183 173 287 l7 38 64 -7 c77 -8 142 9 215 57
50 32 65 58 58 95 -2 14 -16 19 -63 24 -56 6 -63 10 -102 55 -23 26 -40 51
-37 56 3 4 23 8 45 8 32 0 39 3 39 19 0 11 -4 22 -9 25 -4 3 -14 32 -21 66
-13 63 -4 145 24 220 18 47 51 163 66 231 9 42 10 69 2 105 -6 27 -13 69 -17
93 -3 24 -12 56 -20 72 -8 15 -15 39 -15 52 0 13 -7 32 -15 43 -8 10 -15 30
-15 44 0 14 -7 39 -16 55 -9 17 -20 54 -25 84 -4 29 -11 56 -14 59 -7 8 -44
-13 -93 -53 -38 -31 -51 -35 -99 -35 -77 0 -114 21 -210 119 -82 83 -126 111
-194 126 -18 4 -40 11 -49 16 -8 4 -50 24 -92 44 -75 35 -77 36 -103 19 -32
-21 -94 -21 -155 -1 -63 21 -117 26 -170 17z m-1840 -1254 c12 -12 14 -56 2
-56 -4 0 -13 5 -20 12 -6 6 -14 9 -17 6 -4 -3 9 -21 28 -39 33 -33 70 -130 55
-145 -14 -14 -51 11 -88 59 -22 29 -45 58 -50 64 -20 24 -27 58 -18 91 5 17
12 32 17 32 5 0 22 26 37 57 l29 57 7 -64 c4 -35 12 -68 18 -74z m2720 26 c28
-28 50 -58 48 -66 -2 -8 -33 -53 -71 -100 -46 -59 -74 -86 -88 -86 -18 0 -20
4 -15 30 3 17 9 44 12 60 4 20 16 36 36 46 27 14 28 17 16 32 -11 13 -14 37
-10 97 3 53 7 73 12 59 5 -11 31 -44 60 -72z m-2350 -1216 c0 -11 -19 -15 -25
-6 -3 5 1 10 9 10 9 0 16 -2 16 -4z m309 -100 c16 -20 -3 -64 -34 -78 -20 -9
-31 -8 -61 8 -45 24 -48 29 -32 53 19 30 106 42 127 17z m1385 -16 c25 -12 46
-22 46 -24 0 -2 -11 -11 -25 -20 -18 -12 -30 -14 -43 -7 -10 5 -24 6 -33 1
-18 -10 -91 12 -97 29 -15 45 71 56 152 21z m-1216 -64 c15 -8 50 -24 77 -36
28 -12 64 -28 80 -35 44 -19 205 -40 315 -40 159 0 261 20 385 75 74 33 83 33
116 6 17 -14 41 -26 55 -26 13 0 24 -3 24 -8 0 -8 -6 -11 -96 -56 -33 -16 -70
-38 -83 -48 -13 -10 -32 -18 -43 -18 -10 0 -21 -7 -24 -15 -4 -8 -17 -15 -29
-15 -13 0 -30 -6 -38 -14 -8 -8 -32 -19 -55 -25 -23 -7 -44 -16 -47 -21 -3 -6
-14 -10 -23 -10 -9 -1 -35 -9 -57 -20 -48 -23 -96 -25 -138 -5 -36 16 -104 41
-157 57 -19 6 -44 17 -55 24 -11 8 -27 14 -36 14 -9 0 -22 7 -29 15 -7 8 -20
15 -30 15 -10 0 -23 6 -29 14 -7 8 -25 18 -41 21 -16 3 -34 13 -41 21 -6 8
-18 14 -26 14 -8 0 -28 11 -44 24 -28 24 -28 25 -11 38 10 7 22 25 26 41 7 31
17 33 54 13z m422 -386 c0 -5 -7 -7 -15 -4 -8 4 -15 8 -15 10 0 2 7 4 15 4 8
0 15 -4 15 -10z m68 -47 c-2 -10 -14 -19 -28 -21 l-25 -4 20 20 c25 26 37 27
33 5z m252 -228 c0 -49 -16 -63 -24 -21 -8 44 1 86 15 65 5 -8 9 -27 9 -44z"/>
<path d="M640 5138 c-119 -61 -117 -217 2 -276 172 -86 304 156 148 269 -42
31 -98 33 -150 7z"/>
<path d="M1145 5153 c-32 -8 -84 -51 -100 -83 -51 -98 25 -224 134 -224 54 0
103 24 135 67 16 21 21 43 21 87 0 65 -20 102 -71 132 -33 19 -89 29 -119 21z"/>
<path d="M1615 5150 c-17 -5 -45 -25 -64 -43 -60 -63 -60 -151 0 -213 77 -79
200 -60 248 40 26 53 26 79 0 132 -33 68 -114 105 -184 84z"/>
<path d="M4408 5088 c-73 -37 -217 -147 -218 -165 0 -23 31 -13 114 36 103 60
164 81 235 81 53 0 251 -33 271 -45 18 -11 121 -26 140 -20 36 11 20 59 -30
85 -52 28 -233 59 -341 60 -101 0 -110 -2 -171 -32z"/>
<path d="M4405 4841 c-32 -11 -78 -34 -110 -56 -38 -25 -115 -106 -115 -121 0
-6 -7 -17 -15 -24 -30 -25 -18 -72 31 -128 68 -77 89 -84 279 -81 88 1 212 -1
275 -5 l115 -7 40 35 c61 53 85 80 85 91 -1 5 -9 28 -20 50 -11 22 -19 44 -20
48 -1 33 -140 167 -173 167 -8 0 -26 9 -40 20 -23 18 -39 20 -169 19 -78 -1
-152 -4 -163 -8z m319 -90 c6 -4 22 -11 36 -14 54 -13 150 -129 150 -181 0
-43 -73 -87 -148 -88 -22 0 -79 5 -127 13 -70 10 -104 10 -180 0 -117 -17
-177 -1 -212 54 -30 46 -29 55 14 112 44 58 61 71 127 100 47 21 62 22 190 18
77 -3 144 -9 150 -14z"/>
<path d="M4605 4690 c-5 -16 -15 -20 -49 -20 -23 0 -47 -5 -54 -12 -36 -36 12
-122 73 -134 27 -5 41 -1 69 21 32 24 36 32 36 74 0 52 -21 91 -50 91 -10 0
-22 -9 -25 -20z"/>
<path d="M5680 4829 c-19 -10 -41 -19 -49 -19 -22 0 -83 -41 -123 -84 -20 -21
-52 -71 -71 -110 -33 -66 -34 -73 -20 -96 8 -14 38 -43 65 -64 46 -36 56 -40
107 -39 31 1 159 2 285 2 256 1 250 0 320 75 55 59 61 80 36 129 -12 22 -33
56 -48 75 -27 35 -123 112 -140 112 -6 0 -29 9 -53 20 -63 28 -258 28 -309 -1z
m318 -88 c70 -26 114 -60 146 -115 31 -54 32 -73 3 -107 -51 -58 -56 -59 -317
-59 -217 0 -245 2 -278 19 -52 27 -76 55 -69 83 18 69 127 178 178 178 10 0
21 5 24 10 4 6 59 10 133 10 101 0 138 -4 180 -19z"/>
<path d="M5822 4678 c-8 -31 -12 -33 -51 -34 -55 -1 -65 -17 -40 -66 22 -44
45 -58 92 -58 58 0 103 68 84 125 -23 69 -71 88 -85 33z"/>
<path d="M5351 4313 c1 -67 24 -198 34 -198 14 0 18 74 10 163 -6 62 -9 72
-26 72 -15 0 -19 -7 -18 -37z"/>
<path d="M1112 4184 c-107 -55 -107 -214 0 -274 131 -73 281 78 207 209 -11
20 -32 45 -46 55 -36 27 -118 32 -161 10z"/>
<path d="M1580 4177 c-46 -30 -72 -78 -72 -131 0 -151 186 -212 278 -91 36 48
40 128 8 172 -55 74 -147 96 -214 50z"/>
<path d="M8739 4178 c-130 -75 -86 -268 64 -285 126 -15 214 139 139 244 -44
62 -136 81 -203 41z"/>
<path d="M9220 4182 c-109 -54 -108 -217 3 -273 71 -37 149 -15 201 55 29 38
29 124 0 163 -52 70 -132 92 -204 55z"/>
<path d="M5450 3932 c0 -23 -5 -53 -12 -67 -11 -24 -16 -26 -54 -20 -46 6 -82
-6 -129 -43 -24 -20 -37 -23 -74 -19 -25 3 -50 12 -55 20 -6 8 -30 24 -53 35
-33 17 -47 20 -68 12 -37 -14 -39 -13 -58 20 -24 39 -52 41 -42 3 14 -59 31
-73 89 -73 47 0 61 -5 103 -37 66 -50 119 -51 184 -5 36 27 56 34 102 36 46 2
61 8 78 27 21 24 21 29 6 117 -7 40 -17 37 -17 -6z"/>
<path d="M4925 3950 c-3 -5 -1 -10 4 -10 6 0 11 5 11 10 0 6 -2 10 -4 10 -3 0
-8 -4 -11 -10z"/>
<path d="M657 3716 c-49 -18 -64 -32 -89 -80 -73 -142 111 -292 233 -189 41
35 59 74 59 126 0 101 -108 177 -203 143z"/>
<path d="M1137 3716 c-128 -46 -146 -197 -34 -280 43 -32 124 -28 172 8 139
106 25 330 -138 272z"/>
<path d="M1622 3720 c-46 -11 -98 -64 -110 -111 -19 -75 13 -144 84 -179 52
-26 79 -25 134 3 33 16 51 34 68 67 27 55 28 82 1 136 -32 67 -105 102 -177
84z"/>
<path d="M4593 3620 c-34 -14 -30 -49 7 -63 20 -8 44 -33 72 -77 218 -341 644
-410 919 -148 62 59 112 121 130 161 7 15 31 36 56 48 23 11 43 24 43 28 0 4
-10 17 -23 29 -27 26 -82 29 -111 7 -11 -8 -34 -15 -51 -15 -17 0 -56 -8 -86
-17 -79 -25 -616 -26 -699 -1 -30 9 -78 20 -107 23 -29 4 -57 13 -64 21 -13
16 -52 17 -86 4z m327 -118 c129 -23 438 -22 565 1 150 28 190 20 144 -30 -32
-33 -54 -41 -184 -64 -226 -39 -578 -14 -666 47 -39 27 -53 49 -43 66 6 10 27
8 184 -20z"/>
<path d="M8267 3229 c-65 -34 -100 -115 -78 -182 6 -18 27 -49 46 -67 30 -29
43 -34 92 -38 48 -3 64 0 92 20 103 69 95 220 -13 269 -52 24 -91 23 -139 -2z"/>
<path d="M8755 3236 c-154 -71 -108 -296 60 -296 157 0 213 187 84 283 -34 25
-105 31 -144 13z"/>
<path d="M5095 3050 c-4 -6 28 -10 90 -10 62 0 94 4 90 10 -3 6 -44 10 -90 10
-46 0 -87 -4 -90 -10z"/>
<path d="M1106 2747 c-47 -27 -76 -77 -76 -132 0 -118 136 -196 231 -132 105
71 105 193 0 264 -44 30 -104 30 -155 0z"/>
<path d="M2539 2748 c-45 -25 -79 -83 -79 -133 0 -51 34 -108 80 -134 74 -41
167 -15 209 59 75 135 -77 286 -210 208z"/>
<path d="M7790 2752 c-52 -26 -80 -74 -80 -137 0 -158 188 -212 284 -82 15 21
21 43 21 82 0 60 -20 95 -75 133 -40 27 -101 29 -150 4z"/>
<path d="M8261 2748 c-57 -38 -75 -72 -75 -133 0 -61 18 -95 75 -133 28 -20
43 -23 87 -20 87 7 143 67 144 152 2 85 -56 146 -144 154 -44 3 -59 0 -87 -20z"/>
<path d="M9220 2751 c-109 -57 -107 -222 3 -275 50 -23 107 -21 147 7 55 37
75 72 75 132 0 60 -20 95 -75 133 -41 27 -102 29 -150 3z"/>
<path d="M1580 2267 c-102 -68 -94 -214 14 -266 54 -27 81 -26 136 2 48 24 90
87 90 136 0 40 -39 109 -74 131 -47 28 -122 27 -166 -3z"/>
<path d="M2052 2268 c-35 -25 -72 -90 -72 -129 0 -49 42 -112 90 -136 54 -28
82 -29 134 -3 110 53 117 207 14 270 -46 28 -123 27 -166 -2z"/>
<path d="M2529 2267 c-68 -45 -90 -143 -46 -207 37 -55 72 -75 132 -75 153 0
212 196 85 283 -46 31 -124 31 -171 -1z"/>
<path d="M7782 2270 c-46 -29 -72 -76 -72 -134 0 -63 28 -108 84 -135 54 -27
81 -26 136 2 48 24 90 87 90 136 0 40 -39 109 -74 131 -44 27 -120 27 -164 0z"/>
<path d="M8252 2268 c-35 -25 -72 -90 -72 -129 0 -49 42 -112 90 -136 55 -28
82 -29 136 -2 108 52 116 198 14 266 -46 31 -123 31 -168 1z"/>
<path d="M9212 2270 c-97 -59 -96 -192 1 -264 44 -33 123 -29 171 8 41 30 66
78 66 123 0 42 -38 110 -74 133 -44 27 -120 27 -164 0z"/>
<path d="M1130 1809 c-90 -38 -129 -153 -77 -229 62 -94 195 -97 259 -8 18 25
23 46 23 90 0 60 -17 94 -66 130 -30 22 -105 31 -139 17z"/>
<path d="M1593 1799 c-148 -73 -91 -294 75 -291 58 2 106 32 131 86 27 54 26
81 -1 136 -17 33 -35 51 -68 68 -55 27 -83 28 -137 1z"/>
<path d="M2070 1798 c-33 -17 -51 -35 -67 -68 -28 -55 -29 -82 -2 -136 71
-147 289 -94 289 69 0 63 -29 109 -86 137 -52 26 -80 25 -134 -2z"/>
<path d="M3035 1806 c-16 -8 -43 -28 -59 -45 -24 -25 -30 -42 -34 -88 -3 -48
0 -64 20 -92 69 -103 215 -96 267 13 27 54 26 81 -1 136 -17 33 -35 51 -68 68
-50 25 -82 27 -125 8z"/>
<path d="M4470 1809 c-14 -5 -36 -20 -48 -32 -106 -99 -40 -269 103 -269 111
0 184 112 141 216 -28 68 -131 113 -196 85z"/>
<path d="M5900 1809 c-61 -25 -100 -85 -100 -152 0 -144 196 -204 281 -86 47
66 32 163 -33 213 -39 29 -109 42 -148 25z"/>
<path d="M6363 1799 c-118 -58 -117 -215 2 -276 42 -22 108 -19 149 6 37 23
76 91 76 132 0 49 -42 112 -90 137 -55 27 -83 28 -137 1z"/>
<path d="M8270 1798 c-33 -17 -51 -35 -67 -68 -28 -55 -29 -82 -2 -136 25 -54
73 -84 131 -86 168 -3 224 219 74 292 -54 26 -81 25 -136 -2z"/>
<path d="M9240 1809 c-122 -49 -135 -216 -21 -283 107 -62 248 36 228 159 -15
93 -123 157 -207 124z"/>
<path d="M2539 1318 c-136 -78 -80 -288 76 -288 118 0 196 136 132 231 -52 77
-135 100 -208 57z"/>
<path d="M3022 1324 c-51 -26 -82 -79 -82 -139 0 -159 187 -213 284 -82 29 39
29 125 0 163 -50 67 -135 92 -202 58z"/>
<path d="M3504 1326 c-17 -8 -44 -31 -60 -51 -36 -48 -40 -128 -8 -172 35 -48
82 -73 134 -73 148 0 210 195 89 281 -39 27 -112 35 -155 15z"/>
<path d="M3969 1317 c-77 -51 -99 -133 -58 -207 40 -71 131 -99 205 -64 47 22
76 67 82 124 12 124 -129 214 -229 147z"/>
<path d="M4934 1326 c-59 -26 -102 -112 -88 -173 9 -39 49 -90 84 -108 98 -51
224 25 224 134 0 54 -24 103 -66 134 -34 25 -113 32 -154 13z"/>
<path d="M7309 1317 c-57 -38 -81 -84 -77 -143 7 -87 68 -144 155 -144 116 0
194 137 130 231 -33 50 -82 79 -132 79 -27 0 -54 -8 -76 -23z"/>
<path d="M7790 1322 c-53 -29 -80 -75 -80 -136 0 -160 187 -214 284 -83 29 39
29 125 0 163 -51 69 -137 93 -204 56z"/>
<path d="M8274 1326 c-17 -8 -44 -31 -60 -51 -36 -48 -40 -128 -8 -172 35 -48
82 -73 134 -73 148 0 209 195 89 281 -39 27 -112 35 -155 15z"/>
<path d="M1581 838 c-103 -70 -97 -214 12 -269 82 -42 179 -3 212 85 24 61 14
108 -34 159 -35 37 -43 41 -97 45 -50 3 -65 0 -93 -20z"/>
<path d="M2060 838 c-55 -38 -75 -73 -75 -132 0 -43 6 -60 29 -90 49 -65 117
-81 192 -47 108 49 114 208 12 271 -46 28 -115 27 -158 -2z"/>
<path d="M2530 838 c-69 -47 -91 -144 -47 -208 37 -55 72 -75 132 -75 153 0
212 195 86 281 -48 33 -124 33 -171 2z"/>
<path d="M3012 841 c-70 -45 -95 -147 -52 -217 23 -36 91 -74 133 -74 44 0 92
25 121 63 51 67 44 146 -19 207 -30 29 -43 34 -92 37 -46 3 -65 0 -91 -16z"/>
<path d="M7300 838 c-69 -47 -91 -144 -47 -208 37 -55 72 -75 132 -75 153 0
212 195 86 281 -48 33 -124 33 -171 2z"/>
</g>
</svg>
